<svg xmlns="http://www.w3.org/2000/svg" viewBox="0 0 16 16"><path d="M6 8c0-1.1.9-2 2-2s2 .9 2 2-.9 2-2 2-2-.9-2-2M4.9 8c0 1.7 1.4 3.1 3.1 3.1 1.7 0 3-1.4 3-3.1 0-1.7-1.3-3.1-3-3.1S4.9 6.3 4.9 8m5.6-3.2c0 .4.3.7.7.7s.7-.3.7-.7c0-.4-.3-.7-.7-.7s-.7.3-.7.7m-4.9 8c-.6 0-.9-.1-1.1-.2-.5-.2-.9-.6-1.1-1.1-.4-.9-.3-5.2-.3-5.9 0-.7.2-1.3.7-1.8.6-.6 1.4-.9 6.6-.7.7 0 1.3.2 1.8.7.6.6.9 1.4.7 6.6 0 .6-.1.9-.2 1.1-.6 1.4-1.8 1.6-7.1 1.3M5.5 2.1c-1 0-1.8.3-2.5 1-.7.6-.9 1.5-1 2.4 0 .6-.2 5.2.3 6.4.3.8.9 1.4 1.7 1.7.4.1.8.2 1.4.3 5.3.2 7.3.1 8.1-2 .1-.4.2-.8.3-1.4.2-5.3 0-6.5-1-7.4-.6-.8-1.4-1.3-7.3-1"/></svg>