<?xml version="1.0" encoding="utf-8"?>
<!-- Generator: Adobe Illustrator 21.1.0, SVG Export Plug-In . SVG Version: 6.00 Build 0)  -->
<svg version="1.1"
	 id="Layer_1" inkscape:version="0.92.1 r15371" sodipodi:docname="03-f402-user.svg" xmlns:cc="http://creativecommons.org/ns#" xmlns:dc="http://purl.org/dc/elements/1.1/" xmlns:inkscape="http://www.inkscape.org/namespaces/inkscape" xmlns:rdf="http://www.w3.org/1999/02/22-rdf-syntax-ns#" xmlns:sodipodi="http://sodipodi.sourceforge.net/DTD/sodipodi-0.dtd" xmlns:svg="http://www.w3.org/2000/svg"
	 xmlns="http://www.w3.org/2000/svg" xmlns:xlink="http://www.w3.org/1999/xlink" x="0px" y="0px" viewBox="0 0 16 16"
	 style="enable-background:new 0 0 16 16;" xml:space="preserve">
<sodipodi:namedview  bordercolor="#666666" borderopacity="1" gridtolerance="10" guidetolerance="10" id="namedview7" inkscape:current-layer="Layer_1" inkscape:cx="-227.9661" inkscape:cy="10" inkscape:pageopacity="0" inkscape:pageshadow="2" inkscape:window-height="1027" inkscape:window-maximized="1" inkscape:window-width="1920" inkscape:window-x="1272" inkscape:window-y="-8" inkscape:zoom="0.36875" objecttolerance="10" pagecolor="#ffffff" showgrid="false">
	</sodipodi:namedview>
<path id="path5" inkscape:connector-curvature="0" d="M10.3,8.4c0.8-0.7,1.3-1.7,1.3-2.8C11.6,3.6,10,2,8,2C6,2,4.4,3.6,4.4,5.6
	c0,1.1,0.5,2.1,1.3,2.8C3.5,9.2,2,11.3,2,14h12C14,11.3,12.5,9.2,10.3,8.4 M5.6,5.6c0-1.3,1.1-2.4,2.4-2.4c1.3,0,2.4,1.1,2.4,2.4
	S9.3,8,8,8C6.7,8,5.6,6.9,5.6,5.6 M8,9.2c2.3,0,4.2,1.3,4.7,3.6H3.3C3.8,10.5,5.7,9.2,8,9.2"/>
</svg>
