<?xml version="1.0" encoding="utf-8"?>
<!-- Generator: Adobe Illustrator 21.1.0, SVG Export Plug-In . SVG Version: 6.00 Build 0)  -->
<svg version="1.1"
	 id="Layer_1" xmlns:cc="http://creativecommons.org/ns#" xmlns:dc="http://purl.org/dc/elements/1.1/" xmlns:rdf="http://www.w3.org/1999/02/22-rdf-syntax-ns#" xmlns:svg="http://www.w3.org/2000/svg"
	 xmlns="http://www.w3.org/2000/svg" xmlns:xlink="http://www.w3.org/1999/xlink" x="0px" y="0px" viewBox="0 0 16 16"
	 style="enable-background:new 0 0 16 16;" xml:space="preserve">
<path id="path2" d="M13.7,4.8l-2.6-2.6C11,2.1,10.8,2,10.5,2c-0.2,0-0.5,0.1-0.6,0.3L2.8,9.3C2.7,9.4,2.7,9.5,2.7,9.7L2,13.3
	c0,0,0,0.1,0,0.1C2,13.7,2.3,14,2.6,14c0,0,0.1,0,0.1,0l3.6-0.7c0.1,0,0.2-0.1,0.3-0.2l5-5c0,0,0,0,0,0c0,0,0,0,0,0l2-2c0,0,0,0,0,0
	C14.1,5.8,14.1,5.2,13.7,4.8 M11.3,6.9L9.1,4.7l1.4-1.4l2.1,2.1L11.3,6.9z"/>
</svg>
