<?xml version="1.0" encoding="utf-8"?>
<!-- Generator: Adobe Illustrator 21.1.0, SVG Export Plug-In . SVG Version: 6.00 Build 0)  -->
<svg version="1.1"
	 id="Layer_1" xmlns:cc="http://creativecommons.org/ns#" xmlns:dc="http://purl.org/dc/elements/1.1/" xmlns:rdf="http://www.w3.org/1999/02/22-rdf-syntax-ns#" xmlns:svg="http://www.w3.org/2000/svg"
	 xmlns="http://www.w3.org/2000/svg" xmlns:xlink="http://www.w3.org/1999/xlink" x="0px" y="0px" viewBox="0 0 16 16"
	 style="enable-background:new 0 0 16 16;" xml:space="preserve">
<path id="path2" d="M12.9,5.4H3.1C2.5,5.4,2,5.9,2,6.5v4.1c0,0.6,0.5,1.1,1.1,1.1h0.8v1.1C3.9,13.5,4.4,14,5,14h6
	c0.6,0,1.1-0.5,1.1-1.1v-1.1h0.7c0.6,0,1.1-0.5,1.1-1.1V6.5C14,5.9,13.5,5.4,12.9,5.4 M10.6,12.5H5.4V9.9h5.2V12.5z M11.4,4.2H4.6
	V3.1C4.6,2.5,5.1,2,5.7,2h4.5c0.6,0,1.1,0.5,1.1,1.1V4.2z"/>
</svg>
