<?xml version="1.0" encoding="utf-8"?>
<!-- Generator: Adobe Illustrator 21.1.0, SVG Export Plug-In . SVG Version: 6.00 Build 0)  -->
<svg version="1.1"
	 id="Layer_1" xmlns:cc="http://creativecommons.org/ns#" xmlns:dc="http://purl.org/dc/elements/1.1/" xmlns:rdf="http://www.w3.org/1999/02/22-rdf-syntax-ns#" xmlns:svg="http://www.w3.org/2000/svg"
	 xmlns="http://www.w3.org/2000/svg" xmlns:xlink="http://www.w3.org/1999/xlink" x="0px" y="0px" viewBox="0 0 16 16"
	 style="enable-background:new 0 0 16 16;" xml:space="preserve">
<path id="path2" d="M10.9,9.8c-0.4,0-0.8,0.1-1.2,0.4L7.1,8.7c0.1-0.2,0.1-0.4,0.1-0.6c0-0.2,0-0.4-0.1-0.6l2.8-1.6
	c0.3,0.2,0.7,0.3,1.1,0.3c1.2,0,2.1-1,2.1-2.1S12.1,2,10.9,2C9.8,2,8.8,3,8.8,4.1c0,0.3,0.1,0.6,0.2,0.8L6.4,6.4C6,6.1,5.5,6,5.1,6
	C3.9,6,3,6.9,3,8.1c0,1.2,0.9,2.1,2.1,2.1c0.5,0,0.9-0.2,1.3-0.5l2.6,1.5c-0.1,0.2-0.1,0.4-0.1,0.6c0,1.2,0.9,2.1,2.1,2.1
	s2.1-1,2.1-2.1C13,10.7,12.1,9.8,10.9,9.8L10.9,9.8z"/>
</svg>
