<?xml version="1.0" encoding="utf-8"?>
<!-- Generator: Adobe Illustrator 21.1.0, SVG Export Plug-In . SVG Version: 6.00 Build 0)  -->
<svg version="1.1"
	 id="Layer_1" inkscape:version="0.92.1 r15371" sodipodi:docname="02-f401-search.svg" xmlns:cc="http://creativecommons.org/ns#" xmlns:dc="http://purl.org/dc/elements/1.1/" xmlns:inkscape="http://www.inkscape.org/namespaces/inkscape" xmlns:rdf="http://www.w3.org/1999/02/22-rdf-syntax-ns#" xmlns:sodipodi="http://sodipodi.sourceforge.net/DTD/sodipodi-0.dtd" xmlns:svg="http://www.w3.org/2000/svg"
	 xmlns="http://www.w3.org/2000/svg" xmlns:xlink="http://www.w3.org/1999/xlink" x="0px" y="0px" viewBox="0 0 16 16"
	 style="enable-background:new 0 0 16 16;" xml:space="preserve">
<sodipodi:namedview  bordercolor="#666666" borderopacity="1" gridtolerance="10" guidetolerance="10" id="namedview63" inkscape:current-layer="Layer_1" inkscape:cx="4.0232608" inkscape:cy="530.23729" inkscape:pageopacity="0" inkscape:pageshadow="2" inkscape:window-height="1027" inkscape:window-maximized="1" inkscape:window-width="1920" inkscape:window-x="1272" inkscape:window-y="-8" inkscape:zoom="0.42140707" objecttolerance="10" pagecolor="#ffffff" showgrid="false">
	</sodipodi:namedview>
<path id="path26" inkscape:connector-curvature="0" d="M6.7,0.5c-3.3,0-6,2.7-6,6s2.7,6,6,6c1.3,0,2.5-0.4,3.5-1.1l4.1,4.1l1.1-1.1
	l-4.1-4.1c0.9-1.1,1.4-2.4,1.4-3.9C12.7,3.2,10,0.5,6.7,0.5L6.7,0.5z M6.7,2c2.5,0,4.5,2,4.5,4.5S9.2,11,6.7,11S2.2,9,2.2,6.5
	S4.2,2,6.7,2z"/>
</svg>
