<?xml version="1.0" encoding="utf-8"?>
<!-- Generator: Adobe Illustrator 21.1.0, SVG Export Plug-In . SVG Version: 6.00 Build 0)  -->
<svg version="1.1"
	 id="Layer_1" inkscape:version="0.92.1 r15371" sodipodi:docname="02-f401-cart.svg" xmlns:cc="http://creativecommons.org/ns#" xmlns:dc="http://purl.org/dc/elements/1.1/" xmlns:inkscape="http://www.inkscape.org/namespaces/inkscape" xmlns:rdf="http://www.w3.org/1999/02/22-rdf-syntax-ns#" xmlns:sodipodi="http://sodipodi.sourceforge.net/DTD/sodipodi-0.dtd" xmlns:svg="http://www.w3.org/2000/svg"
	 xmlns="http://www.w3.org/2000/svg" xmlns:xlink="http://www.w3.org/1999/xlink" x="0px" y="0px" viewBox="0 0 16 16"
	 style="enable-background:new 0 0 16 16;" xml:space="preserve">
<sodipodi:namedview  bordercolor="#666666" borderopacity="1" gridtolerance="10" guidetolerance="10" id="namedview7" inkscape:current-layer="Layer_1" inkscape:cx="512" inkscape:cy="512" inkscape:pageopacity="0" inkscape:pageshadow="2" inkscape:window-height="1027" inkscape:window-maximized="1" inkscape:window-width="1920" inkscape:window-x="1272" inkscape:window-y="-8" inkscape:zoom="0.23046875" objecttolerance="10" pagecolor="#ffffff" showgrid="false">
	</sodipodi:namedview>
<path id="path4" inkscape:connector-curvature="0" d="M13.6,5.7l-2.8-5.2C10.6,0,10.1-0.1,9.7,0.1C9.3,0.4,9.2,0.9,9.4,1.3l2.4,4.4
	H4.2l2.4-4.4c0.2-0.4,0.1-0.9-0.3-1.2l0,0C5.9-0.1,5.4,0,5.2,0.4L2.4,5.7H0.8C0.4,5.7,0,6.1,0,6.5s0.4,0.9,0.8,0.9h0.3l1.1,7.2
	C2.3,15.4,3,16,3.8,16h8.5c0.8,0,1.5-0.6,1.6-1.4l1.1-7.2h0.3C15.6,7.4,16,7,16,6.5s-0.4-0.9-0.8-0.9H13.6z M11.6,14.3H4.4
	c-0.4,0-0.7-0.3-0.8-0.7l-1-6.2h10.8l-1.1,6.2C12.3,14,12,14.3,11.6,14.3"/>
</svg>
