<?xml version="1.0" encoding="utf-8"?>
<!-- Generator: Adobe Illustrator 21.1.0, SVG Export Plug-In . SVG Version: 6.00 Build 0)  -->
<svg version="1.1"
	 id="Layer_1" xmlns:cc="http://creativecommons.org/ns#" xmlns:dc="http://purl.org/dc/elements/1.1/" xmlns:rdf="http://www.w3.org/1999/02/22-rdf-syntax-ns#" xmlns:svg="http://www.w3.org/2000/svg"
	 xmlns="http://www.w3.org/2000/svg" xmlns:xlink="http://www.w3.org/1999/xlink" x="0px" y="0px" viewBox="0 0 16 16"
	 style="enable-background:new 0 0 16 16;" xml:space="preserve">
<path id="path2" d="M5.5,14c5.2,0,8.1-4.7,8.1-8.6c0-0.1,0-0.2,0-0.4c0.6-0.4,1-1,1.4-1.6c-0.5,0.2-1,0.4-1.6,0.5
	c0.6-0.4,1-1,1.3-1.7c-0.6,0.4-1.2,0.6-1.9,0.7c-1-1.2-2.9-1.2-4-0.1c-0.7,0.7-1,1.8-0.8,2.8C5.6,5.5,3.5,4.4,2,2.4
	C1.3,3.9,1.7,5.6,3,6.6C2.5,6.6,2,6.5,1.7,6.3l0,0C1.7,7.7,2.6,9,4,9.2c-0.5,0.1-0.9,0.1-1.4,0C3,10.4,4,11.3,5.3,11.3
	c-1,0.9-2.2,1.4-3.6,1.4c-0.2,0-0.5,0-0.7,0C2.4,13.5,3.9,14,5.5,14"/>
</svg>
