<?xml version="1.0" encoding="utf-8"?>
<!-- Generator: Adobe Illustrator 21.1.0, SVG Export Plug-In . SVG Version: 6.00 Build 0)  -->
<svg version="1.1"
	 id="Layer_1" xmlns:cc="http://creativecommons.org/ns#" xmlns:dc="http://purl.org/dc/elements/1.1/" xmlns:rdf="http://www.w3.org/1999/02/22-rdf-syntax-ns#" xmlns:svg="http://www.w3.org/2000/svg"
	 xmlns="http://www.w3.org/2000/svg" xmlns:xlink="http://www.w3.org/1999/xlink" x="0px" y="0px" viewBox="0 0 16 16"
	 style="enable-background:new 0 0 16 16;" xml:space="preserve">
<path id="path2" d="M8,2C4.6,2,2,4.6,2,8c0,2.4,1.4,4.4,3.6,5.4c0-1.1,0-1,0.8-4.6c-0.5-1-0.1-2.5,1-2.5c1.4,0,0.5,2.2,0.2,3
	c-0.1,0.6,0.4,1.2,1,1.2c1.2,0,1.9-1.4,1.9-3.1c0-1.3-0.8-2.3-2.4-2.3c-2.8,0-3.5,3-2.5,4c0.2,0.4,0,0.4,0,0.8C5.4,10.4,4,9.7,4,7.9
	c0-1.7,1.4-3.7,4.2-3.7c2.3,0,3.7,1.7,3.7,3.4c0,2.4-1.3,4.1-3.1,4.1c-0.6,0-1.2-0.4-1.4-0.7c-0.4,1.4-0.5,2.2-1,2.9
	C6.9,13.9,7.5,14,8.1,14c3.2,0,5.9-2.6,5.9-6C13.9,4.6,11.2,2,8,2"/>
</svg>
