<?xml version="1.0" encoding="utf-8"?>
<!-- Generator: Adobe Illustrator 21.1.0, SVG Export Plug-In . SVG Version: 6.00 Build 0)  -->
<svg version="1.1"
	 id="Layer_1" xmlns:cc="http://creativecommons.org/ns#" xmlns:dc="http://purl.org/dc/elements/1.1/" xmlns:rdf="http://www.w3.org/1999/02/22-rdf-syntax-ns#" xmlns:svg="http://www.w3.org/2000/svg"
	 xmlns="http://www.w3.org/2000/svg" xmlns:xlink="http://www.w3.org/1999/xlink" x="0px" y="0px" viewBox="0 0 16 16"
	 style="enable-background:new 0 0 16 16;" xml:space="preserve">
<path id="path2_1_" d="M6,8c0-1.1,0.9-2,2-2c1.1,0,2,0.9,2,2c0,1.1-0.9,2-2,2S6,9.1,6,8 M4.9,8c0,1.7,1.4,3.1,3.1,3.1
	C9.7,11.1,11,9.7,11,8C11,6.3,9.7,4.9,8,4.9S4.9,6.3,4.9,8 M10.5,4.8c0,0.4,0.3,0.7,0.7,0.7s0.7-0.3,0.7-0.7c0-0.4-0.3-0.7-0.7-0.7
	S10.5,4.4,10.5,4.8 M5.6,12.8c-0.6,0-0.9-0.1-1.1-0.2c-0.5-0.2-0.9-0.6-1.1-1.1C3,10.6,3.1,6.3,3.1,5.6c0-0.7,0.2-1.3,0.7-1.8
	c0.6-0.6,1.4-0.9,6.6-0.7c0.7,0,1.3,0.2,1.8,0.7c0.6,0.6,0.9,1.4,0.7,6.6c0,0.6-0.1,0.9-0.2,1.1C12.1,12.9,10.9,13.1,5.6,12.8
	 M5.5,2.1c-1,0-1.8,0.3-2.5,1C2.3,3.7,2.1,4.6,2,5.5c0,0.6-0.2,5.2,0.3,6.4c0.3,0.8,0.9,1.4,1.7,1.7c0.4,0.1,0.8,0.2,1.4,0.3
	c5.3,0.2,7.3,0.1,8.1-2c0.1-0.4,0.2-0.8,0.3-1.4c0.2-5.3,0-6.5-1-7.4C12.2,2.3,11.4,1.8,5.5,2.1"/>
</svg>
